<svg id="Layer_1" data-name="Layer 1" xmlns="http://www.w3.org/2000/svg" viewBox="0 0 240.74 322.79"><defs><style>.cls-1{fill:#107869;}.cls-2{fill:#1a5653;}.cls-3,.cls-4{fill:#08313a;}.cls-4{font-size:44.45px;font-family:Fragua-Bold, Fragua;font-weight:700;}</style></defs><title>4</title><g id="green"><polygon class="cls-1" points="216.21 56.12 119.02 112.24 21.82 56.12 119.02 0 216.21 56.12"/><polygon class="cls-2" points="216.21 87.54 119.02 144.45 119.02 112.24 216.21 56.12 216.21 87.54"/><polygon class="cls-2" points="216.21 200.16 119.02 263.06 119.02 229.32 216.21 168.73 216.21 200.16"/><polygon class="cls-2" points="216.21 144.84 119.02 204.1 119.02 170.35 216.21 112.63 216.21 144.84"/><polygon class="cls-3" points="21.82 87.54 119.02 144.45 119.02 112.24 21.82 56.12 21.82 87.54"/><polygon class="cls-3" points="21.82 200.16 119.02 263.06 119.02 229.32 21.82 168.73 21.82 200.16"/><polygon class="cls-3" points="21.82 144.84 119.02 204.1 119.02 170.35 21.82 112.63 21.82 144.84"/><polygon class="cls-2" points="216.48 200.09 184.81 220.31 184.81 74.23 216.48 56.12 216.48 200.09"/><polygon class="cls-3" points="21.82 200.09 52.66 219.78 52.66 73.75 21.82 56.12 21.82 200.09"/><text class="cls-4" transform="translate(0 313.64) scale(1.09 1)">COMPUTERS</text></g></svg>